<svg id="_0220_car" xmlns="http://www.w3.org/2000/svg" viewBox="0 0 500 500" data-imageid="car-24" imageName="Car" class="illustrations_image" style="width: 266px;"><defs><style>.cls-1_car-24,.cls-2_car-24{fill:#fff;}.cls-3_car-24{opacity:.15;}.cls-3_car-24,.cls-4_car-24{fill:#ffd200;}.cls-5_car-24{fill:#000001;opacity:.03;}.cls-6_car-24,.cls-7_car-24,.cls-8_car-24{fill:#e6e6e6;}.cls-7_car-24{opacity:.3;}.cls-9_car-24{opacity:.16;}.cls-9_car-24,.cls-10_car-24{fill:#68e1fd;}.cls-2_car-24{opacity:.46;}.cls-8_car-24{opacity:.43;}.cls-11_car-24{fill:#24285b;}</style></defs><g id="bg_car-24"><path class="cls-7_car-24" d="m112.09,93.23c-46.01,21.08-80.14,74.53-86.87,139.18-5.67,54.48,7.88,114.68,87.64,131.84,155.2,33.38,300.55,42.89,337.65-47.16,37.11-90.04,25.69-244.29-53.06-254.27-62.62-7.94-195.5-10.75-285.35,30.41Z"/><path class="cls-6_car-24" d="m486.52,269.77c0-5.18-4.2-9.39-9.39-9.39-.51,0-1.02.05-1.51.13-2.14-3.97-6.32-6.66-11.14-6.66-.16,0-.31.02-.46.02.29-1.17.46-2.38.46-3.64,0-8.29-6.72-15.02-15.02-15.02s-15.02,6.72-15.02,15.02c0,1.26.17,2.47.46,3.64-.15,0-.31-.02-.46-.02-6.99,0-12.65,5.66-12.65,12.65s5.66,12.65,12.65,12.65h43.9v-.09c4.6-.6,8.16-4.53,8.16-9.3Z"/><path class="cls-8_car-24" d="m449.54,150.43c0-5.18-4.2-9.39-9.39-9.39-.51,0-1.02.05-1.51.13-2.14-3.97-6.32-6.66-11.14-6.66-.16,0-.31.02-.46.02.29-1.17.46-2.38.46-3.64,0-8.29-6.72-15.02-15.02-15.02s-15.02,6.72-15.02,15.02c0,1.26.17,2.47.46,3.64-.15,0-.31-.02-.46-.02-6.99,0-12.65,5.66-12.65,12.65s5.66,12.65,12.65,12.65h43.9v-.09c4.6-.6,8.16-4.53,8.16-9.3Z"/><path class="cls-8_car-24" d="m198.67,218.36c0-5.18-4.2-9.39-9.39-9.39-.51,0-1.02.05-1.51.13-2.14-3.97-6.32-6.66-11.14-6.66-.16,0-.31.02-.46.02.29-1.17.46-2.38.46-3.64,0-8.29-6.72-15.02-15.02-15.02s-15.02,6.72-15.02,15.02c0,1.26.17,2.47.46,3.64-.15,0-.31-.02-.46-.02-6.99,0-12.65,5.66-12.65,12.65s5.66,12.65,12.65,12.65h43.9v-.09c4.6-.6,8.16-4.53,8.16-9.3Z"/><ellipse class="cls-5_car-24" cx="253.74" cy="435.81" rx="234.83" ry="24.56"/><circle class="cls-4_car-24" cx="268.46" cy="105.96" r="48.68"/><circle class="cls-3_car-24" cx="268.46" cy="105.96" r="76.09"/><path class="cls-6_car-24" d="m150.21,105.72c0-5.61-4.55-10.16-10.16-10.16-.56,0-1.1.06-1.63.14-2.31-4.29-6.84-7.21-12.06-7.21-.17,0-.33.02-.5.03.32-1.26.5-2.58.5-3.94,0-8.97-7.27-16.25-16.25-16.25s-16.25,7.27-16.25,16.25c0,1.36.19,2.68.5,3.94-.17,0-.33-.03-.5-.03-7.56,0-13.69,6.13-13.69,13.69s6.13,13.69,13.69,13.69h47.51v-.09c4.98-.65,8.83-4.9,8.83-10.06Z"/><path class="cls-6_car-24" d="m76.15,260.43c0-5.18-4.2-9.39-9.39-9.39-.51,0-1.02.05-1.51.13-2.14-3.97-6.32-6.66-11.14-6.66-.16,0-.31.02-.46.02.29-1.17.46-2.38.46-3.64,0-8.29-6.72-15.02-15.02-15.02s-15.02,6.72-15.02,15.02c0,1.26.17,2.47.46,3.64-.15,0-.31-.02-.46-.02-6.99,0-12.65,5.66-12.65,12.65s5.66,12.65,12.65,12.65h43.9v-.09c4.6-.6,8.16-4.53,8.16-9.3Z"/></g><g id="car_car-24"><path class="cls-10_car-24 targetColor" d="m160.81,279.48l52.02-39.08c10.93-8.21,24.24-12.66,37.91-12.66h132.51c28.51,0,55.21,14.25,70.83,38.11,21.41,32.7,40.57,82.56,9.67,133.94H33.71v-44.62c0-19.06,13.14-35.61,31.71-39.9,29.86-6.9,73.21-19.12,95.39-35.79Z" style="fill: rgb(0, 122, 255);"/><path class="cls-5_car-24" d="m185.22,374.52v-39.5h0c0-10.86,8.8-19.66,19.66-19.66h189.94c15.39,0,28.48,11.73,29.58,27.08.53,7.37-.5,15.33-4.77,22.59l-21.72,9.49h-212.7Z"/><rect class="cls-10_car-24 targetColor" x="26.23" y="374.52" width="453.69" height="25.26" rx="3.94" ry="3.94" style="fill: rgb(0, 122, 255);"/><rect class="cls-2_car-24" x="26.23" y="374.52" width="453.69" height="25.26" rx="3.94" ry="3.94"/><circle class="cls-11_car-24" cx="431.14" cy="396.15" r="39.65"/><circle class="cls-1_car-24" cx="431.14" cy="396.15" r="23.02"/><path class="cls-11_car-24" d="m154.85,396.15c0,13.31-6.56,25.1-16.63,32.29-6.49,4.64-14.44,7.37-23.02,7.37-9.32,0-17.89-3.22-24.66-8.6-9.14-7.26-14.99-18.48-14.99-31.05,0-21.9,17.75-39.65,39.65-39.65s39.65,17.75,39.65,39.65Z"/><circle class="cls-1_car-24" cx="115.2" cy="396.15" r="23.02"/><path class="cls-11_car-24" d="m223.61,253.7l-38.45,36.78c-4.33,4.14-1.4,11.45,4.59,11.45h214.25c8.29,0,14.13-8.16,11.45-16.01l-7.84-22.99c-3.52-10.34-13.23-17.29-24.15-17.29h-139.78c-7.48,0-14.68,2.89-20.08,8.06Z"/><path class="cls-11_car-24" d="m427.24,239.98s-10.04,43.6,46.88,67.16c0,0-9.64-47.57-46.88-67.16Z"/><path class="cls-5_car-24" d="m110.32,336.65c-4.73-.48-5.24-7.16-.63-8.33,8.18-2.07,18.59-2.73,29.88,1.45,11.71,4.33,19.46,10.61,24.45,16.19,4.73,5.3,1.75,13.75-5.24,15h0c-3.91.7-7.91-1.12-9.76-4.64-3.54-6.75-13.1-17.09-38.7-19.68Z"/><polygon class="cls-10_car-24 targetColor" points="294.71 239.98 290.45 313.76 328.82 313.76 316.45 239.98 294.71 239.98" style="fill: rgb(0, 122, 255);"/><rect class="cls-11_car-24" x="185.22" y="361.12" width="231.97" height="3.91"/><rect class="cls-1_car-24" x="226.92" y="315.36" width="27.5" height="11.34" rx="3.57" ry="3.57"/><rect class="cls-1_car-24" x="380.62" y="315.36" width="27.5" height="11.34" rx="3.57" ry="3.57"/><polygon class="cls-9_car-24 targetColor" points="353.55 245.64 365.06 301.93 394.58 301.93 377.43 245.64 353.55 245.64" style="fill: rgb(0, 122, 255);"/><polygon class="cls-9_car-24 targetColor" points="243.86 245.64 255.38 301.93 284.89 301.93 267.74 245.64 243.86 245.64" style="fill: rgb(0, 122, 255);"/><rect class="cls-10_car-24 targetColor" x="181.55" y="282.8" width="37.83" height="20.69" rx="6.51" ry="6.51" style="fill: rgb(0, 122, 255);"/><rect class="cls-2_car-24" x="181.55" y="282.8" width="37.83" height="20.69" rx="6.51" ry="6.51"/><path class="cls-1_car-24" d="m41.99,330.48h30.52c3.93,0,6.31,4.35,4.19,7.65l-8.14,12.7c-2.26,3.53-6.17,5.67-10.36,5.67h-24.49v-3.22c0-8.34,2.93-16.41,8.28-22.8h0Z"/></g></svg>